<?xml version="1.0" standalone="no"?>
<!DOCTYPE svg PUBLIC "-//W3C//DTD SVG 20010904//EN"
 "http://www.w3.org/TR/2001/REC-SVG-20010904/DTD/svg10.dtd">
<svg version="1.0" xmlns="http://www.w3.org/2000/svg"
 width="512.000000pt" height="512.000000pt" viewBox="0 0 512.000000 512.000000"
 preserveAspectRatio="xMidYMid meet">

<g transform="translate(0.000000,512.000000) scale(0.100000,-0.100000)"
fill="#000000" stroke="none">
<path d="M2365 5109 c-940 -77 -1751 -648 -2137 -1503 -223 -494 -281 -1069
-162 -1606 194 -872 847 -1589 1702 -1870 430 -140 905 -163 1352 -64 776 173
1441 716 1772 1448 223 492 281 1070 162 1606 -232 1041 -1105 1837 -2164
1974 -152 20 -389 27 -525 15z m520 -155 c1007 -138 1820 -891 2039 -1889 52
-239 66 -585 32 -820 -64 -449 -243 -866 -514 -1200 -70 -85 -241 -265 -253
-265 -5 0 -9 75 -9 168 0 261 -31 415 -116 585 -151 298 -416 498 -751 564
l-83 16 0 202 0 202 34 74 c35 75 76 208 96 312 9 47 16 60 40 72 75 39 136
145 167 290 44 212 29 716 -27 898 -61 196 -233 333 -495 394 -111 25 -449 26
-580 0 -345 -67 -643 -198 -770 -339 -116 -129 -174 -363 -161 -658 11 -273
73 -461 184 -561 43 -39 50 -51 61 -108 22 -113 61 -233 107 -331 l45 -95 -3
-174 -3 -174 -100 -17 c-123 -21 -205 -49 -315 -106 -313 -162 -523 -466 -570
-824 -5 -41 -10 -147 -10 -235 l0 -159 -71 69 c-301 297 -537 707 -639 1115
-91 363 -101 718 -29 1075 212 1053 1103 1845 2177 1935 135 11 373 4 517 -16z
m158 -533 c204 -54 338 -177 375 -346 34 -156 44 -595 17 -750 -9 -49 -26
-112 -39 -140 -21 -46 -24 -48 -29 -25 -57 259 -105 380 -182 454 -89 87 -270
156 -492 188 -135 19 -420 16 -518 -6 -246 -56 -356 -193 -401 -498 -9 -62
-18 -115 -19 -117 -7 -6 -36 73 -55 146 -45 172 -45 432 -1 605 43 169 101
233 296 331 161 81 368 143 575 173 135 19 371 12 473 -15z m-334 -767 c232
-35 376 -106 430 -213 31 -59 70 -197 87 -298 13 -85 13 -104 -1 -186 -9 -51
-33 -142 -53 -203 -65 -191 -162 -337 -287 -432 -168 -126 -359 -144 -544 -51
-212 106 -361 336 -422 652 -17 87 -18 114 -9 230 30 380 113 487 404 517 102
10 260 4 395 -16z m381 -1465 l0 -111 -251 -264 c-138 -145 -254 -264 -259
-264 -4 0 -121 118 -259 263 l-251 262 0 103 c0 56 3 102 6 102 3 0 26 -18 52
-39 273 -229 638 -221 904 19 24 22 46 39 51 40 4 0 7 -50 7 -111z m-836 -514
c154 -162 286 -297 294 -300 54 -20 60 -15 352 295 323 342 282 316 442 276
297 -75 550 -307 650 -596 41 -119 48 -182 48 -445 l0 -254 -82 -59 c-316
-226 -695 -375 -1093 -428 -134 -18 -443 -21 -580 -4 -407 48 -810 205 -1137
443 l-68 49 0 247 c0 136 5 274 11 307 65 369 353 667 719 745 167 35 125 61
444 -276z"/>
<path d="M2549 4335 c-244 -39 -535 -149 -651 -245 -48 -40 -53 -87 -12 -119
36 -28 53 -26 101 9 102 75 314 160 503 201 134 29 381 37 473 15 131 -31 196
-78 218 -160 22 -82 30 -95 61 -101 39 -9 82 21 86 60 10 82 -55 202 -140 260
-29 19 -89 47 -133 62 -71 23 -98 26 -250 29 -112 2 -199 -2 -256 -11z"/>
</g>
</svg>
